<svg preserveAspectRatio="none" overflow="visible" style="display: block;" width="18" height="16" viewBox="0 0 18 16" fill="none" xmlns="http://www.w3.org/2000/svg">
<g id="vector">
<path fill-rule="evenodd" clip-rule="evenodd" d="M3 10C3.93188 10 4.39808 10.0001 4.76562 10.1523C5.25547 10.3553 5.64467 10.7445 5.84766 11.2344C5.9999 11.6019 6 12.0681 6 13C6 13.9319 5.9999 14.3981 5.84766 14.7656L5.7627 14.9443C5.54552 15.3497 5.19423 15.6701 4.76562 15.8477L4.62207 15.8984C4.27395 16.0004 3.81521 16 3 16C2.06812 16 1.60192 15.9999 1.23438 15.8477C0.805771 15.6701 0.45448 15.3497 0.237305 14.9443L0.152344 14.7656C0.000102818 14.3981 0 13.9319 0 13C0 12.0681 0.000102818 11.6019 0.152344 11.2344C0.355326 10.7445 0.744525 10.3553 1.23438 10.1523C1.60192 10.0001 2.06812 10 3 10ZM3 11.5996C2.51221 11.5996 2.22646 11.6008 2.01465 11.6152C1.91232 11.6222 1.85916 11.6306 1.83789 11.6348C1.74726 11.675 1.67499 11.7473 1.63477 11.8379C1.63055 11.8592 1.62222 11.9123 1.61523 12.0146C1.60079 12.2265 1.59961 12.5122 1.59961 13C1.59961 13.4878 1.60079 13.7735 1.61523 13.9854C1.62212 14.0862 1.63049 14.1393 1.63477 14.1611C1.67486 14.252 1.74716 14.3239 1.83789 14.3643C1.85903 14.3685 1.91202 14.3778 2.01465 14.3848C2.22646 14.3992 2.51221 14.4004 3 14.4004C3.48779 14.4004 3.77354 14.3992 3.98535 14.3848C4.08649 14.3779 4.13938 14.3685 4.16113 14.3643C4.25213 14.324 4.32401 14.2521 4.36426 14.1611C4.36852 14.1394 4.37786 14.0865 4.38477 13.9854C4.39921 13.7735 4.40039 13.4878 4.40039 13C4.40039 12.5122 4.39921 12.2265 4.38477 12.0146C4.37776 11.912 4.36846 11.859 4.36426 11.8379C4.32388 11.7472 4.25203 11.6749 4.16113 11.6348C4.13927 11.6305 4.08621 11.6221 3.98535 11.6152C3.77354 11.6008 3.48779 11.5996 3 11.5996Z" fill="#161A33"/>
<path d="M15 14C15.5523 14 16 14.4477 16 15V15.0996C16 15.2652 15.8658 15.4003 15.7002 15.4004H8.7002C8.31366 15.4004 8.00011 15.0867 8 14.7002C8 14.3136 8.3136 14 8.7002 14H15Z" fill="#161A33"/>
<path d="M17 10.6006C17.5523 10.6006 18 11.0483 18 11.6006V11.7002C17.9999 11.8658 17.8658 11.9999 17.7002 12H8.7002C8.3136 12 8 11.6864 8 11.2998C8.00016 10.9133 8.31369 10.6006 8.7002 10.6006H17Z" fill="#161A33"/>
<path fill-rule="evenodd" clip-rule="evenodd" d="M3 0C3.93188 0 4.39808 0.000102818 4.76562 0.152344C5.25547 0.355326 5.64467 0.744525 5.84766 1.23438C5.9999 1.60192 6 2.06812 6 3C6 3.93188 5.9999 4.39808 5.84766 4.76562L5.7627 4.94434C5.54552 5.34975 5.19423 5.67005 4.76562 5.84766L4.62207 5.89844C4.27395 6.00036 3.81521 6 3 6C2.06812 6 1.60192 5.9999 1.23438 5.84766C0.805771 5.67005 0.45448 5.34975 0.237305 4.94434L0.152344 4.76562C0.000102818 4.39808 0 3.93188 0 3C0 2.06812 0.000102818 1.60192 0.152344 1.23438C0.355326 0.744525 0.744525 0.355326 1.23438 0.152344C1.60192 0.000102818 2.06812 0 3 0ZM3 1.59961C2.51221 1.59961 2.22646 1.60079 2.01465 1.61523C1.91232 1.62222 1.85916 1.63055 1.83789 1.63477C1.74726 1.67499 1.67499 1.74726 1.63477 1.83789C1.63055 1.85916 1.62222 1.91232 1.61523 2.01465C1.60079 2.22646 1.59961 2.51221 1.59961 3C1.59961 3.48779 1.60079 3.77354 1.61523 3.98535C1.62212 4.08621 1.63049 4.13927 1.63477 4.16113C1.67486 4.25203 1.74716 4.32388 1.83789 4.36426C1.85903 4.36846 1.91202 4.37776 2.01465 4.38477C2.22646 4.39921 2.51221 4.40039 3 4.40039C3.48779 4.40039 3.77354 4.39921 3.98535 4.38477C4.08649 4.37786 4.13938 4.36852 4.16113 4.36426C4.25213 4.32401 4.32401 4.25213 4.36426 4.16113C4.36852 4.13938 4.37786 4.08649 4.38477 3.98535C4.39921 3.77354 4.40039 3.48779 4.40039 3C4.40039 2.51221 4.39921 2.22646 4.38477 2.01465C4.37776 1.91202 4.36846 1.85903 4.36426 1.83789C4.32388 1.74716 4.25203 1.67486 4.16113 1.63477C4.13927 1.63049 4.08621 1.62212 3.98535 1.61523C3.77354 1.60079 3.48779 1.59961 3 1.59961Z" fill="#161A33"/>
<path d="M15.0049 4C15.5571 4.00013 16.0049 4.4478 16.0049 5V5.09961C16.0049 5.26515 15.8706 5.40015 15.7051 5.40039H8.7002C8.31369 5.40039 8.00016 5.08666 8 4.7002C8 4.3136 8.3136 4 8.7002 4H15.0049Z" fill="#161A33"/>
<path d="M17 0.600586C17.5523 0.600586 18 1.0483 18 1.60059V1.7002C17.9999 1.86577 17.8658 1.99989 17.7002 2H8.7002C8.3136 2 8 1.6864 8 1.2998C8.00016 0.91334 8.31369 0.600586 8.7002 0.600586H17Z" fill="#161A33"/>
</g>
</svg>
